<svg xmlns="http://www.w3.org/2000/svg" width="50" height="50.001" viewBox="0 0 50 50.001">
  <g id="instagram" transform="translate(0 -0.001)">
    <path id="Path_5" data-name="Path 5" d="M18.675,5.838A12.829,12.829,0,1,0,31.5,18.667,12.828,12.828,0,0,0,18.675,5.838Zm0,21.156A8.327,8.327,0,1,1,27,18.667,8.324,8.324,0,0,1,18.675,26.994Z" transform="translate(6.333 6.324)"/>
    <path id="Path_6" data-name="Path 6" d="M35.309.158c-4.6-.215-15.994-.2-20.6,0C10.665.347,7.1,1.324,4.219,4.2-.589,9.01.025,15.489.025,24.991c0,9.725-.542,16.054,4.194,20.79,4.827,4.825,11.4,4.194,20.79,4.194,9.633,0,12.958.006,16.365-1.312,4.631-1.8,8.127-5.938,8.469-13.373.217-4.6.2-15.994,0-20.6C49.429,5.914,44.719.591,35.309.158ZM42.59,42.6c-3.152,3.152-7.525,2.871-17.642,2.871-10.417,0-14.594.154-17.642-2.9-3.51-3.494-2.875-9.1-2.875-17.61,0-11.51-1.181-19.8,10.371-20.392,2.654-.094,3.435-.125,10.117-.125l.094.063c11.1,0,19.813-1.163,20.335,10.388.119,2.635.146,3.427.146,10.1,0,10.3.194,14.5-2.9,17.61Z" transform="translate(0 0)"/>
    <circle id="Ellipse_1" data-name="Ellipse 1" cx="2.998" cy="2.998" r="2.998" transform="translate(35.348 8.658)"/>
  </g>
</svg>
