<svg id="mail" xmlns="http://www.w3.org/2000/svg" width="50" height="34.375" viewBox="0 0 50 34.375">
  <g id="Group_14" data-name="Group 14" transform="translate(33.58 6.621)">
    <g id="Group_13" data-name="Group 13">
      <path id="Path_7" data-name="Path 7" d="M339.392,155.715l16.42,10.38V144.9Z" transform="translate(-339.392 -144.896)"/>
    </g>
  </g>
  <g id="Group_16" data-name="Group 16" transform="translate(0 6.621)">
    <g id="Group_15" data-name="Group 15">
      <path id="Path_8" data-name="Path 8" d="M0,144.9v21.2l16.42-10.38Z" transform="translate(0 -144.896)"/>
    </g>
  </g>
  <g id="Group_18" data-name="Group 18" transform="translate(0.091)">
    <g id="Group_17" data-name="Group 17">
      <path id="Path_9" data-name="Path 9" d="M47.746,80H3.992A3.06,3.06,0,0,0,.96,82.59L25.869,98.575,50.777,82.59A3.06,3.06,0,0,0,47.746,80Z" transform="translate(-0.96 -80)"/>
    </g>
  </g>
  <g id="Group_20" data-name="Group 20" transform="translate(0.097 19.718)">
    <g id="Group_19" data-name="Group 19">
      <path id="Path_10" data-name="Path 10" d="M31.208,277.923l-4.422,2.837a1.6,1.6,0,0,1-1.719,0l-4.422-2.84L1.024,290.008a3.056,3.056,0,0,0,3.025,2.569H47.8a3.056,3.056,0,0,0,3.025-2.569Z" transform="translate(-1.024 -277.92)"/>
    </g>
  </g>
</svg>
